<?xml version="1.0" encoding="UTF-8"?>
<!-- Generator: Adobe Illustrator 21.0.2, SVG Export Plug-In . SVG Version: 6.00 Build 0)  -->
<svg version="1.1" id="Слой_1" xmlns="http://www.w3.org/2000/svg" xmlns:xlink="http://www.w3.org/1999/xlink" x="0px" y="0px" viewBox="0 0 350 370" style="enable-background:new 0 0 350 370;" xml:space="preserve">
<style type="text/css">
	.st0{fill:#FFFFFF;}
	.st1{fill:#030047;}
	.st2{fill:hsl(28deg 79% 55%);}
	.st3{fill:#FFCC3E;}
	.st4{fill:#FF3E6C;}
</style>
<g id="_x36_">
	<g id="Bottom_91_">
		<g id="Legs_44_">
			<g>
				<path class="st0" d="M212.2,278.5c-6.5-2.6-12.3-3-12.3-30.5c-11.2,2.5-22.4,4.5-33.8,6c0.6,17,1,33.7,1,33.7l50.6,0.1      C217.7,287.7,218.8,281.1,212.2,278.5z"/>
				<path class="st1" d="M218.4,288.5l-52-0.1l0-0.7c0-0.2-0.4-16.8-1-33.7l0-0.7l0.7-0.1c11.6-1.6,22.9-3.6,33.7-6l0.9-0.2l0,0.9      c0,25.3,4.9,27.2,10.7,29.4c0.4,0.1,0.8,0.3,1.1,0.4c7.1,2.8,6,10,6,10.1L218.4,288.5z M167.8,286.9L217,287      c0.1-1.6-0.3-5.9-5.2-7.8c-0.4-0.2-0.8-0.3-1.1-0.4c-6.2-2.3-11.5-4.4-11.6-29.8c-10.4,2.3-21.2,4.2-32.3,5.7      C167.4,269.3,167.8,283.6,167.8,286.9z"/>
			</g>
			<g>
				<path class="st0" d="M200,254.1c-0.1-2.3-0.1-4.8-0.1-7.5c0.2-29.8,9.6-47.3-18.8-59.4c-8.2-3.5-18.2-9.1-32.9-13.4      c-15.7-4.6-11.6-3-11.6-3l-22,15.9c46.2,31.5,42.8,29.1,50.2,34.1c-1.2,7.4,1.1,21.9,1.6,36.4      C177.5,256.4,188.8,255.5,200,254.1z"/>
				<path class="st1" d="M165.5,257.9l0-0.8c-0.2-5.6-0.6-11-1-16.3c-0.7-8.1-1.2-15.1-0.6-19.8c-4.7-3.2-5-3.4-18.9-12.8      l-31.8-21.7l22.1-15.9c0-0.1,0-0.3,0-0.4c0.3-0.9,0.3-1,13,2.8c10.9,3.2,19.3,7.1,26.1,10.3c2.5,1.2,4.8,2.2,7,3.2      c22.8,9.7,21.8,22.8,20.2,42.6c-0.4,5.2-0.9,11.1-0.9,17.5c0,2.7,0,5.2,0.1,7.5l0,0.7l-0.7,0.1c-10.8,1.3-21.9,2.3-33.8,3      L165.5,257.9z M115.7,186.6l30,20.4c14.2,9.7,14.2,9.7,19.3,13.1l0.4,0.3l-0.1,0.5c-0.7,4.5-0.1,11.6,0.5,19.9      c0.4,5.1,0.8,10.3,1,15.6c11.4-0.7,21.9-1.7,32.3-2.9c-0.1-2.1-0.1-4.4-0.1-6.9c0-6.4,0.5-12.4,0.9-17.6      c1.5-19.2,2.6-31.8-19.3-41.1c-2.2-0.9-4.5-2-7-3.2c-6.7-3.1-15.1-7-25.9-10.2c-6.9-2-9.8-2.8-11-3.1L115.7,186.6z"/>
			</g>
			<g>
				<path class="st2" d="M157.2,228.1c1.1-2,18.8-32.3,23.8-41c-7.6-4.8-18.2-9.1-32.9-13.4c-15.7-4.6-11.6-3-11.6-3l-22,15.9      C139.8,215,152.6,225,157.2,228.1z"/>
				<path class="st2" d="M157.5,229.2l-0.7-0.5c-5.5-3.7-18.3-14-42.9-41.7l-0.6-0.6l22-15.8c0-0.1,0-0.3,0-0.4      c0.3-0.9,0.3-1,13,2.8c14.9,4.4,25.4,8.7,33.1,13.5l0.6,0.4l-0.4,0.6c-1.7,3-4.9,8.4-8.4,14.4c-6.6,11.2-14.7,25.2-15.4,26.5      L157.5,229.2z M115.5,186.7c23.8,26.7,36.5,36.9,41.4,40.3c1.8-3.2,8.8-15.2,15-25.8c3.3-5.6,6.3-10.7,8.1-13.8      c-7.5-4.6-17.8-8.7-32.1-13c-6.9-2-9.8-2.8-11-3.1L115.5,186.7z"/>
			</g>
			<g>
				<path class="st1" d="M200.9,264c-11.4,1.4-22.9,2.4-34.4,3.1c0.4,11.5,0.6,20.5,0.6,20.5l50.6,0.1c0,0,1.1-6.6-5.6-9.3      C207.3,276.5,202.8,275.8,200.9,264z"/>
			</g>
			<g>
				<path class="st0" d="M206.1,269l-8.5,6.5c-0.5,0.4,0,1.2,0.5,0.9l8.5-6.5C207.1,269.5,206.6,268.6,206.1,269z"/>
			</g>
			<g>
				<path class="st0" d="M208.6,272.2c-2,1.7-3.7,3.8-4.9,6.2c-0.3,0.6,0.6,1.1,0.9,0.5c1.2-2.3,2.8-4.3,4.8-6      C209.8,272.5,209.1,271.8,208.6,272.2z"/>
			</g>
			<g>
				<path class="st0" d="M98.8,174.9c-4,15.2,0.7,56.3-9.7,77.2c-6,12-32.3,58.7-32.3,58.7l43.3,26.1c0,0,4.3-5.1,0-10.8      c-4.3-5.7-9.1-9,5.9-33.7c21.1-34.7,29-52.6,29-89.3c0-16.3-1.4-31-1.4-31L98.8,174.9z"/>
				<path class="st1" d="M100.3,337.8L55.8,311l0.4-0.6c0.3-0.5,26.4-46.7,32.3-58.6c6.4-12.8,7-34.1,7.5-51.1      c0.3-10.8,0.6-20.1,2.1-25.9l0.1-0.5l0.5,0l35.5-2.9l0.1,0.7c0,0.1,1.4,14.9,1.4,31.1c0,35.9-7.3,53.9-29.1,89.7      c-13.9,22.8-10.5,27-6.7,31.8c0.3,0.3,0.5,0.6,0.8,1c4.6,6.1,0,11.7,0,11.7L100.3,337.8z M57.8,310.4l42.1,25.4      c0.9-1.4,2.8-5.2-0.4-9.3c-0.3-0.3-0.5-0.6-0.8-1c-4.2-5.3-7.8-9.9,6.6-33.5c21.7-35.6,28.9-53.4,28.9-88.9      c0-14.1-1.1-27.1-1.4-30.2l-33.5,2.8c-1.4,5.7-1.6,14.7-1.9,25.1c-0.5,18.1-1.1,38.6-7.6,51.7C84.3,263.5,61,304.8,57.8,310.4z"/>
			</g>
			<g>
				<path class="st0" d="M102.2,298.9c1.1-2,2.3-4.2,3.8-6.5c21.1-34.7,29-52.6,29-89.3c0-16.3-1.4-31-1.4-31l-34.8,2.9      c-4,15.2,0.7,56.3-9.7,77.2c-2.9,5.7-10.3,19.4-17.4,32C81.7,289.3,91.9,294.3,102.2,298.9z"/>
				<path class="st1" d="M102.5,299.9l-0.6-0.3c-9.9-4.5-19.9-9.3-30.5-14.8l-0.7-0.4l0.4-0.7c9.2-16.4,15-27.2,17.4-32      c6.4-12.8,7-34.1,7.5-51.1c0.3-10.8,0.6-20.1,2.1-25.9l0.1-0.5l0.5,0l35.5-2.9l0.1,0.7c0,0.1,1.4,14.9,1.4,31.1      c0,35.9-7.3,53.9-29.1,89.7c-1.4,2.3-2.7,4.5-3.8,6.5L102.5,299.9z M72.7,283.8c10.1,5.2,19.7,9.9,29.2,14.1      c1-1.9,2.2-3.9,3.5-5.9c21.7-35.6,28.9-53.4,28.9-88.9c0-14.1-1.1-27.1-1.4-30.2l-33.5,2.8c-1.4,5.7-1.6,14.7-1.9,25.1      c-0.5,18.1-1.1,38.6-7.6,51.7C87.4,257.1,81.7,267.7,72.7,283.8z"/>
			</g>
			<g>
				<path class="st2" d="M137.6,241.9c6.3-23.2-4-69.9-4-69.9l-34.8,2.9c-3,11.6-1.1,38.2-4.5,59.5      C94.9,234.5,132.5,241.5,137.6,241.9z"/>
				<path class="st2" d="M138.2,242.7l-0.6,0c-4.1-0.3-28.4-4.7-42.6-7.4l-1.6-0.3l0.1-0.7c1.7-10.7,2.1-22.9,2.4-33.7      c0.3-10.8,0.6-20.1,2.1-25.9l0.1-0.5l0.5,0l35.4-2.9l0.1,0.6c0.4,1.9,10.3,47.2,4,70.2L138.2,242.7z M95.1,233.8l0.1,0      c22.7,4.2,37.7,6.8,41.8,7.3c5.4-21.4-2.9-62.6-4.1-68.3l-33.6,2.8c-1.4,5.7-1.6,14.7-1.9,25.1      C97.1,211.2,96.8,223.1,95.1,233.8z"/>
			</g>
			<g>
				<path class="st1" d="M97.9,307.9c-10.5-4.7-20.8-9.7-31.1-15c-5.6,10.1-10.1,17.9-10.1,17.9l43.3,26.1c0,0,4.3-5.1,0-10.8      C96.9,321.9,93.5,318.9,97.9,307.9z"/>
			</g>
			<g>
				<path class="st0" d="M99.8,314.8l-10.6,1.2c-0.6,0.1-0.6,1.1,0,1l10.6-1.2C100.4,315.7,100.4,314.7,99.8,314.8z"/>
			</g>
			<g>
				<path class="st0" d="M100.3,318.9c-2.6,0.4-5.1,1.4-7.4,2.8c-0.6,0.3,0,1.2,0.5,0.9c2.2-1.4,4.6-2.2,7.2-2.7      C101.2,319.7,100.9,318.8,100.3,318.9z"/>
			</g>
			<g>
				<path class="st0" d="M138.2,211.8c-0.4,0-0.8-0.3-0.8-0.8c0-5.7,0.5-9.9,0.5-9.9l0.1-0.5l0.5-0.1c0,0,3.8-0.8,7.7-3.7      c0.3-0.2,0.8-0.2,1.1,0.1c0.2,0.3,0.2,0.8-0.1,1.1c-3.4,2.5-6.5,3.6-7.8,3.9c-0.1,1.3-0.4,4.8-0.4,9.2      C138.9,211.5,138.6,211.8,138.2,211.8z"/>
			</g>
			<g>
				<path class="st1" d="M197.9,213.1c-1.9-0.4-3.4-1.9-3.7-3.8c-0.1-0.6-1.1-0.4-1,0.3c0.4,2.2,2.1,4.1,4.4,4.5      C198.3,214.1,198.6,213.2,197.9,213.1z"/>
			</g>
			<g>
				<path class="st1" d="M121.3,249.4c0.3-0.6-0.5-1.1-0.9-0.5c-1.2,2.1-1.2,4.5,0,6.6c0.3,0.6,1.2,0.1,0.9-0.5      C120.3,253.2,120.3,251.1,121.3,249.4z"/>
			</g>
		</g>
		<g id="Steps_3_">
			<g>
				<path class="st2" d="M171,338.4c-0.4,0-0.8-0.3-0.8-0.8v-49.3h49.3c0.4,0,0.8,0.3,0.8,0.8s-0.3,0.8-0.8,0.8h-47.8v47.8      C171.8,338,171.4,338.4,171,338.4z"/>
			</g>
			<g>
				<path class="st2" d="M219.5,289.9c-0.4,0-0.8-0.3-0.8-0.8v-49.3h33.9c0.4,0,0.8,0.3,0.8,0.8s-0.3,0.8-0.8,0.8h-32.4v47.8      C220.3,289.5,220,289.9,219.5,289.9z"/>
			</g>
			<g>
				<path class="st2" d="M268.1,241.3H259c-0.4,0-0.8-0.3-0.8-0.8s0.3-0.8,0.8-0.8h9.1c0.4,0,0.8,0.3,0.8,0.8      S268.5,241.3,268.1,241.3z"/>
			</g>
			<g>
				<path class="st2" d="M268.1,241.3c-0.4,0-0.8-0.3-0.8-0.8v-28.8c0-0.4,0.3-0.8,0.8-0.8s0.8,0.3,0.8,0.8v28.8      C268.8,241,268.5,241.3,268.1,241.3z"/>
			</g>
			<g>
				<path class="st2" d="M268.1,205.9c-0.4,0-0.8-0.3-0.8-0.8v-13.8H286c0.4,0,0.8,0.3,0.8,0.8s-0.3,0.8-0.8,0.8h-17.2v12.3      C268.8,205.6,268.5,205.9,268.1,205.9z"/>
			</g>
			<g>
				<path class="st2" d="M316.6,192.8H308c-0.4,0-0.8-0.3-0.8-0.8s0.3-0.8,0.8-0.8h8.6c0.4,0,0.8,0.3,0.8,0.8S317,192.8,316.6,192.8      z"/>
			</g>
		</g>
	</g>
	<g id="Background_79_">
		<g>
			<path class="st0" d="M246.7,152.8l15,23.3c0,0,10-10.2,3-19.7S246.7,152.8,246.7,152.8z"/>
			<path class="st1" d="M261.6,177.3l-15.9-24.8l0.7-0.4c0.1-0.1,11.7-6.2,19,3.8c7.3,10-3,20.6-3.1,20.7L261.6,177.3z M247.8,153.1     l14,21.8c2-2.4,7.9-10.4,2.3-18.1C258.5,149.1,250.3,152,247.8,153.1z"/>
		</g>
		<g>
			<circle class="st2" cx="249.7" cy="170.4" r="4.2"/>
			<path class="st2" d="M249.7,175.4c-2.7,0-4.9-2.2-4.9-4.9s2.2-4.9,4.9-4.9c2.7,0,4.9,2.2,4.9,4.9S252.4,175.4,249.7,175.4z      M249.7,167c-1.9,0-3.4,1.5-3.4,3.4s1.5,3.4,3.4,3.4c1.9,0,3.4-1.5,3.4-3.4S251.6,167,249.7,167z"/>
		</g>
		<g>
			<path class="st1" d="M212.9,233.9c-0.3,0-0.6-0.2-0.7-0.4l-6.2-13.6c-0.2-0.4,0-0.8,0.4-1c0.4-0.2,0.8,0,1,0.4l6.2,13.6     c0.2,0.4,0,0.8-0.4,1C213.1,233.8,213,233.9,212.9,233.9z"/>
		</g>
		<g>
			<path class="st1" d="M203,230.1c-0.3,0-0.6-0.2-0.7-0.4c-0.2-0.4,0-0.8,0.4-1l13.6-6.2c0.4-0.2,0.8,0,1,0.4c0.2,0.4,0,0.8-0.4,1     l-13.6,6.2C203.2,230.1,203.1,230.1,203,230.1z"/>
		</g>
		<g>
			<polygon class="st2" points="149.1,286.5 144.8,303.9 160.8,298    "/>
			<path class="st2" d="M143.7,305.1l5-20l13.5,13.3L143.7,305.1z M149.5,288l-3.7,14.7l13.6-5L149.5,288z"/>
		</g>
		<g>
			<path class="st1" d="M62.3,207.5c-0.2,0-0.4-0.1-0.5-0.2l-6-5.3c-0.3-0.3-0.3-0.7-0.1-1.1c0.3-0.3,0.7-0.3,1.1-0.1l6,5.3     c0.3,0.3,0.3,0.7,0.1,1.1C62.8,207.4,62.5,207.5,62.3,207.5z"/>
		</g>
		<g>
			<path class="st1" d="M34,246.2c-0.2,0-0.4-0.1-0.6-0.3c-0.3-0.3-0.2-0.8,0.1-1.1l9.3-7.7c0.3-0.3,0.8-0.2,1.1,0.1     c0.3,0.3,0.2,0.8-0.1,1.1l-9.3,7.7C34.3,246.1,34.2,246.2,34,246.2z"/>
		</g>
		<g>
			<path class="st1" d="M147.7,279.2c-0.1,0-0.2,0-0.3,0l-8.3-3c-0.4-0.1-0.6-0.6-0.5-1c0.1-0.4,0.6-0.6,1-0.5l8.3,3     c0.4,0.1,0.6,0.6,0.5,1C148.3,279,148,279.2,147.7,279.2z"/>
		</g>
		<g>
			<path class="st1" d="M146.1,283.5c-0.1,0-0.1,0-0.2,0l-7.7-2c-0.4-0.1-0.6-0.5-0.5-0.9c0.1-0.4,0.5-0.6,0.9-0.5l7.7,2     c0.4,0.1,0.6,0.5,0.5,0.9C146.7,283.3,146.4,283.5,146.1,283.5z"/>
		</g>
		<g>
			<polygon class="st2" points="182.3,312.4 213.4,295.2 213.4,333.9    "/>
			<path class="st2" d="M214.2,335.3l-33.3-23l33.3-18.3V335.3z M183.7,312.4l28.9,20v-36L183.7,312.4z"/>
		</g>
		<g>
			<rect x="43.3" y="326.3" transform="matrix(0.866 -0.5 0.5 0.866 -158.725 67.8025)" class="st0" width="7.6" height="7.6"/>
			<path class="st1" d="M45.5,336.3l-4.6-7.9l7.9-4.6l4.6,7.9L45.5,336.3z M43,329l3.1,5.3l5.3-3.1l-3.1-5.3L43,329z"/>
		</g>
	</g>
	<g id="Top_94_">
		<g id="Window_39_">
			<g>
				<path class="st0" d="M241.4,88.1h-62.6c-10.4,0-18.9-8.4-18.9-18.9v-9.5c0-10.4,8.4-18.9,18.9-18.9h62.6      c10.4,0,18.9,8.4,18.9,18.9v9.5C260.3,79.6,251.8,88.1,241.4,88.1z"/>
				<path class="st1" d="M241.4,88.8h-62.6c-10.8,0-19.6-8.8-19.6-19.6v-9.5c0-10.8,8.8-19.6,19.6-19.6h62.6      c10.8,0,19.6,8.8,19.6,19.6v9.5C261,80,252.2,88.8,241.4,88.8z M178.9,41.6c-10,0-18.1,8.1-18.1,18.1v9.5      c0,10,8.1,18.1,18.1,18.1h62.6c10,0,18.1-8.1,18.1-18.1v-9.5c0-10-8.1-18.1-18.1-18.1H178.9z"/>
			</g>
			<g>
				<path class="st1" d="M201.1,57.7h-16.9c-0.4,0-0.8-0.3-0.8-0.8s0.3-0.8,0.8-0.8h16.9c0.4,0,0.8,0.3,0.8,0.8      S201.5,57.7,201.1,57.7z"/>
			</g>
			<g>
				<path class="st1" d="M203,53h-18.8c-0.4,0-0.8-0.3-0.8-0.8s0.3-0.8,0.8-0.8H203c0.4,0,0.8,0.3,0.8,0.8S203.4,53,203,53z"/>
			</g>
			<g>
				<circle class="st2" cx="169.8" cy="32.6" r="2.7"/>
				<path class="st2" d="M169.8,36.1c-1.9,0-3.5-1.6-3.5-3.5s1.6-3.5,3.5-3.5c1.9,0,3.5,1.6,3.5,3.5S171.7,36.1,169.8,36.1z       M169.8,30.6c-1.1,0-2,0.9-2,2s0.9,2,2,2c1.1,0,2-0.9,2-2S170.9,30.6,169.8,30.6z"/>
			</g>
			<g>
				<circle class="st2" cx="181.4" cy="32.6" r="2.7"/>
				<path class="st2" d="M181.4,36.1c-1.9,0-3.5-1.6-3.5-3.5s1.6-3.5,3.5-3.5c1.9,0,3.5,1.6,3.5,3.5S183.3,36.1,181.4,36.1z       M181.4,30.6c-1.1,0-2,0.9-2,2s0.9,2,2,2c1.1,0,2-0.9,2-2S182.5,30.6,181.4,30.6z"/>
			</g>
			<g>
				<circle class="st2" cx="193" cy="32.6" r="2.7"/>
				<path class="st2" d="M193,36.1c-1.9,0-3.5-1.6-3.5-3.5s1.6-3.5,3.5-3.5c1.9,0,3.5,1.6,3.5,3.5S194.9,36.1,193,36.1z M193,30.6      c-1.1,0-2,0.9-2,2s0.9,2,2,2c1.1,0,2-0.9,2-2S194.1,30.6,193,30.6z"/>
			</g>
		</g>
		<g id="Hand_2_129_">
			<g>
				<path class="st0" d="M145.6,115.2c18.7,10.1,25.8,17.5,32.8,11.1c13.5-12.3,6.8-31.5,15.8-46.6c4.4-7.4,6.9-9.9,8.2-7.3      c1.3,2.6-3.1,11.5-3.1,11.5s12-0.7,11.3,9.3c-0.3,3.9-1.7,6.8-1.7,6.8s-1.4,48.2-25.5,54.2S142,139.5,142,139.5L145.6,115.2z"/>
				<path class="st1" d="M174.7,156c-19.6,0-33.2-15.9-33.3-16.1l-0.2-0.3L145,114l0.9,0.5c4.4,2.4,8.1,4.5,11.3,6.5      c10.7,6.4,15.6,9.3,20.6,4.7c7.5-6.8,8.6-15.6,9.8-25c0.9-7.2,1.9-14.7,5.9-21.4c3.8-6.4,5.8-8.7,7.6-8.6c0.8,0,1.4,0.5,1.9,1.4      c1.2,2.4-1.3,8.4-2.6,11.1c2,0.1,6,0.6,8.6,3.2c1.7,1.7,2.5,4.1,2.3,7c-0.2,3.6-1.4,6.3-1.7,7c-0.1,3.6-2.1,48.8-26,54.7      C180.5,155.7,177.5,156,174.7,156z M142.8,139.2c2.1,2.3,18.5,19.7,40.5,14.3c23.3-5.8,24.9-53,24.9-53.5l0-0.2l0.1-0.1      c0,0,1.4-2.8,1.6-6.5c0.2-2.5-0.5-4.4-1.9-5.8c-3-3-8.6-2.7-8.6-2.7l-1.3,0.1l0.6-1.2c1.6-3.3,3.9-9.2,3.1-10.9      c-0.1-0.3-0.3-0.6-0.6-0.6c0,0,0,0,0,0c-0.7,0-2.4,1.4-6.3,7.9c-3.8,6.5-4.8,13.8-5.7,20.9c-1.2,9.2-2.4,18.8-10.3,25.9      c-5.8,5.3-11.7,1.8-22.4-4.5c-3-1.8-6.4-3.8-10.3-5.9L142.8,139.2z"/>
			</g>
			<g>
				<path class="st0" d="M167.5,127.4c-5.1-2.1-11.8-6.8-21.9-12.2l-3.6,24.3c0,0,6.4,7.6,16.7,12.3      C161.5,143.6,164.6,135.5,167.5,127.4z"/>
				<path class="st1" d="M159.2,152.8l-0.8-0.3c-10.4-4.7-16.8-12.2-17-12.5l-0.2-0.3L145,114l0.9,0.5c4.4,2.4,8,4.5,11.3,6.5      c4.3,2.5,7.7,4.5,10.5,5.7l0.7,0.3l-0.2,0.7c-1,2.8-2.1,5.7-3.1,8.5c-1.9,5.2-3.9,10.6-5.7,15.9L159.2,152.8z M142.8,139.2      c1.2,1.3,6.9,7.4,15.5,11.5c1.7-5.1,3.6-10.2,5.4-15.1c1-2.6,1.9-5.2,2.9-7.8c-2.8-1.2-6-3.2-10.1-5.5c-3-1.8-6.4-3.8-10.3-5.9      L142.8,139.2z"/>
			</g>
			<g>
				<path class="st1" d="M196.7,94.2c1-2,2.9-5.6,0.9-7.4c-2.1-1.8-3.9,1.2-4.8,2.7c-0.4,0.5,0.5,1,0.9,0.5c0.3-0.4,0.6-0.9,0.9-1.4      c2-2.4,3.3,0.4,2.7,1.7c0,1.2-1,2.7-1.5,3.7c-0.1,0.3,0,0.5,0.2,0.7c2.4,1.8,2,4.8,1.6,7.4c-0.1,0.6,0.9,0.9,1,0.3      C198.9,99.3,199.1,96.3,196.7,94.2z"/>
			</g>
			<g>
				<path class="st1" d="M203.4,95c-1.4,0-2.3,0-2.8-1.8c-0.1-0.5,0-1.2,0-1.8c0-1.5,0.1-2.9,0.3-4.4c0.1-0.6-0.9-0.6-1,0      c-0.2,2.1-0.9,5.2-0.1,7.3c0.6,1.5,2.2,1.7,3.6,1.7C204,96,204,95,203.4,95z"/>
			</g>
			<g>
				<path class="st1" d="M208.3,97.3c-4.4,0.7-2.4-6.3-2.1-8.6c0.1-0.6-0.9-0.9-1-0.3c-0.4,3.1-2.5,10.8,3.3,9.9      C209.2,98.2,208.9,97.2,208.3,97.3z"/>
			</g>
		</g>
		<g id="Scale_1_">
			<g>
				<circle class="st2" cx="201.1" cy="72.2" r="6.8"/>
			</g>
			<g>
				<path class="st2" d="M236.9,72.1h-52.8c-0.4,0-0.8-0.3-0.8-0.8s0.3-0.8,0.8-0.8h52.8c0.4,0,0.8,0.3,0.8,0.8      S237.3,72.1,236.9,72.1z"/>
			</g>
			<g>
				<path class="st2" d="M210.6,63.1c-0.1,0-0.3,0-0.4-0.1c-0.4-0.2-0.5-0.7-0.2-1l5.5-9c0.2-0.4,0.7-0.5,1-0.2      c0.4,0.2,0.5,0.7,0.2,1l-5.5,9C211.1,63,210.9,63.1,210.6,63.1z"/>
			</g>
			<g>
				<path class="st2" d="M212.9,67.5c-0.2,0-0.5-0.1-0.6-0.3c-0.2-0.3-0.1-0.8,0.2-1l6.5-4.3c0.3-0.2,0.8-0.1,1,0.2      c0.2,0.3,0.1,0.8-0.2,1l-6.5,4.3C213.2,67.4,213,67.5,212.9,67.5z"/>
			</g>
		</g>
		<g id="Hair_6_">
			<path class="st1" d="M116.8,88.4c-0.3,0.6-0.5,1.2-0.6,1.8c-3.3,0.9-6.1,3.7-6.8,7.3c-0.2,1.1-0.2,2.2-0.1,3.2     c-2.1,1.2-4,3.3-4.8,5.1c-1.7,3.4-0.2,7.9,2.7,10.3c-0.2,2.2,0.3,4.5,1.7,6.2c0.6,0.7,1.2,1.3,1.9,1.7c0.9,1.5,2.4,2.5,4.6,2.9     c5.3,1,11.2-3.1,14.7-6.7c2-2.1,3.6-4.7,4.6-7.4c1-0.3,1.8-0.8,2.6-1.6c4.4-3.1,7.5-10,2.4-13.3c-0.4-1.1-1.1-2-2.1-2.5     c-1.2-1-2.3-1.4-3.3-1.2c1.3-0.4,2.4-1.1,3.4-2.1c0.7-2.2,1.2-4.4,1.5-6.7c0.2-1.7,1.1-2.8,2.2-3.4     C136.2,77.4,123.6,75.9,116.8,88.4z"/>
		</g>
		<g id="Body_86_">
			<g>
				<path class="st3" d="M152.3,179.7c-19.9,3.7-56.3,1-56.3,1s0.1-22.5,5.6-43.9c5-19.4,15.3-26.8,25.7-27.4      c4.1-0.3,8.2,0.6,12.1,2.1c2.5,1,4.5,2.2,6.1,3.7c9.7,8.6,6.9,24.8,3.8,33.3C145.8,158.4,152.3,179.7,152.3,179.7z"/>
			</g>
			<g>
				<path class="st4" d="M145.6,115.2c-4.3,3.4-11.4,5-18.2-5.8c4.1-0.3,8.2,0.6,12.1,2.1C141.9,112.4,143.9,113.7,145.6,115.2z"/>
			</g>
			<g>
				<path class="st2" d="M149.2,146.2c-0.1,0-0.1,0-0.2,0c-0.4-0.1-0.6-0.5-0.5-0.9c0-0.1,2.9-11.5-1-18.7c-0.2-0.4-0.1-0.8,0.3-1      c0.4-0.2,0.8-0.1,1,0.3c4.2,7.7,1.3,19.3,1.1,19.8C149.9,146,149.6,146.2,149.2,146.2z"/>
			</g>
		</g>
		<g id="Hand_80_">
			<g>
				<path class="st4" d="M115.5,113.5c-12.4,7.7-40.6,39.5-12.6,81.7l19.4-11.3c0,0-5.8-15-5.8-29.5c0-11.5,10-25.1,10-25.1      L115.5,113.5z"/>
			</g>
			<g>
				<path class="st3" d="M118,145.7c2.8-8.7,8.5-16.5,8.5-16.5l-11-15.7c-4.9,3.1-12.3,9.9-17.7,19.7      C104.6,137.2,111.3,141.5,118,145.7z"/>
			</g>
			<g>
				<path class="st2" d="M119.1,143.5c-0.1,0-0.2,0-0.3-0.1c-0.4-0.2-0.5-0.6-0.4-1l3.1-6.6c0.2-0.4,0.6-0.5,1-0.4      c0.4,0.2,0.5,0.6,0.4,1l-3.1,6.6C119.7,143.3,119.4,143.5,119.1,143.5z"/>
			</g>
		</g>
		<g id="Body_89_">
			<g>
				<path class="st0" d="M153.1,180c-19.9,3.7-57.1,1-57.1,1s0.9-22.5,6.5-43.9c5-19.4,15.3-26.8,25.7-27.4      c4.1-0.3,8.2,0.6,12.1,2.1c2.5,1,4.5,2.2,6.1,3.7c9.7,8.6,6.9,24.7,3.8,33.3C146.6,158.7,153.1,180,153.1,180z"/>
				<path class="st1" d="M123.8,182.7c-14.7,0-27.7-0.9-27.9-0.9l-0.7-0.1l0-0.7c0-0.2,0.9-22.9,6.5-44.1      c6.1-23.4,19.2-27.6,26.4-28c4-0.2,8.2,0.5,12.4,2.1c2.4,1,4.6,2.3,6.3,3.8c11.8,10.5,5.4,30.2,4,34.1      c-3.5,9.7,2.9,30.6,2.9,30.8l0.2,0.8l-0.8,0.2C145.1,182.2,134.1,182.7,123.8,182.7z M96.8,180.3c5.2,0.3,37.1,2.2,55.4-0.9      c-1.2-4.1-6-21.8-2.7-30.9c1.3-3.7,7.4-22.7-3.6-32.5c-1.6-1.5-3.6-2.7-5.9-3.6c-4-1.6-7.9-2.3-11.7-2      c-11.8,0.7-20.7,10.2-25.1,26.9C98.3,156.2,97,176.2,96.8,180.3z"/>
			</g>
			<g>
				<path class="st0" d="M146.4,115.4c-4.3,3.4-11.4,5-18.2-5.8c4.1-0.3,8.2,0.6,12.1,2.1C142.7,112.7,144.7,113.9,146.4,115.4z"/>
				<path class="st1" d="M139.7,118.7c-0.5,0-1.1,0-1.6-0.1c-3.8-0.6-7.3-3.5-10.5-8.5l-0.7-1.1l1.3-0.1c4-0.2,8.2,0.5,12.4,2.1      c2.4,1,4.6,2.3,6.3,3.8l0.7,0.6l-0.7,0.6C145.2,117.3,142.7,118.7,139.7,118.7z M129.6,110.3c2.7,4,5.7,6.2,8.8,6.8      c2.8,0.5,5.2-0.6,6.8-1.7c-1.5-1.2-3.2-2.2-5.2-3c-3.5-1.4-6.9-2.1-10.3-2.1C129.6,110.3,129.6,110.3,129.6,110.3z"/>
			</g>
		</g>
		<g id="Hand_83_">
			<g>
				<path class="st0" d="M120.7,141.1c-5.5-5.2-12.2-9.2-18.6-13.3c-10.4,14.8-17.6,38.8,1.6,67.7l19.4-11.3c0,0-5.8-15-5.8-29.5      C117.3,150.1,118.8,145.3,120.7,141.1z"/>
				<path class="st1" d="M103.5,196.5l-0.4-0.6c-21.1-31.8-10-56.6-1.6-68.5l0.4-0.6l2.9,1.9c5.6,3.6,11.5,7.3,16.4,11.9l0.4,0.4      l-0.2,0.5c-2.2,5-3.3,9.4-3.3,13.2c0,14.2,5.7,29.1,5.8,29.3l0.2,0.6L103.5,196.5z M102.3,128.8c-8.1,11.8-18.1,35.4,1.6,65.7      l18.3-10.7c-1.1-3-5.7-16.4-5.7-29.2c0-3.9,1.1-8.3,3.3-13.3c-4.7-4.3-10.3-7.9-15.8-11.4L102.3,128.8z"/>
			</g>
			<g>
				<path class="st0" d="M116.3,113.8c-4.9,3.1-12.3,9.9-17.7,19.7c6.8,4.1,13.5,8.4,20.2,12.6c2.8-8.7,8.5-16.5,8.5-16.5"/>
				<path class="st1" d="M119.2,147.1l-0.8-0.5c-1.9-1.2-3.9-2.4-5.8-3.6c-4.7-3-9.6-6-14.4-8.9l-0.6-0.4l0.4-0.6      c5.4-9.8,12.9-16.7,18-19.9c0.4-0.2,0.8-0.1,1,0.2c0.2,0.4,0.1,0.8-0.2,1c-4.9,3-11.8,9.5-17.1,18.7c4.6,2.8,9.3,5.7,13.8,8.6      c1.7,1,3.3,2.1,5,3.1c2.9-8.4,8.1-15.5,8.3-15.8c0.2-0.3,0.7-0.4,1-0.2c0.3,0.2,0.4,0.7,0.2,1c-0.1,0.1-5.6,7.8-8.4,16.3      L119.2,147.1z"/>
			</g>
		</g>
		<g id="Head_95_">
			<g>
				<path class="st0" d="M140.3,76.9c-2.6-2.2-5.9-3.4-9.3-2.9c-7.1,1-11.9,8.3-10.8,16.2c0,0,0,0,0,0.1c0.1,0.8,0.3,1.6,0.6,2.4      c-2.7,2.1-2,6.3,0.4,8.3c2.1,1.8,4.9,2.2,7.5,0.5c2,0.9,4.2,1.3,6.5,1.2c10.2-0.6,13.4-8.4,10.8-16.2      C144.8,83,143.2,79.3,140.3,76.9z"/>
				<path class="st1" d="M134.4,103.5c-1.9,0-3.8-0.4-5.6-1.1c-2.7,1.5-5.6,1.2-8.1-0.8c-1.5-1.3-2.4-3.3-2.4-5.3      c0-1.5,0.6-2.8,1.6-3.8c-0.2-0.7-0.4-1.4-0.5-2l0-0.1c-0.6-4,0.3-7.9,2.4-11.2c2.2-3.2,5.3-5.3,9-5.9c3.4-0.5,6.9,0.6,9.9,3.1      l0,0c3.1,2.6,4.8,6.6,5.9,9.9c1.5,4.4,1.2,8.8-1,12c-2.1,3.1-5.7,4.9-10.4,5.2C135,103.5,134.7,103.5,134.4,103.5z M128.7,100.7      l0.4,0.2c1.9,0.9,4.1,1.2,6.1,1.1c4.3-0.3,7.5-1.8,9.3-4.6c1.9-2.8,2.2-6.7,0.8-10.7c-1.1-3.2-2.6-6.9-5.4-9.2l0,0      c-2.7-2.2-5.8-3.2-8.7-2.8c-3.2,0.5-6.1,2.3-8,5.2c-1.9,2.9-2.7,6.5-2.2,10.2l0,0.1c0.1,0.7,0.3,1.4,0.5,2.2l0.2,0.5l-0.4,0.3      c-1.2,0.9-1.4,2.1-1.4,3c0,1.5,0.7,3.1,1.9,4.1c2,1.7,4.4,1.9,6.6,0.5L128.7,100.7z"/>
			</g>
			<g>
				<ellipse transform="matrix(0.2471 -0.969 0.969 0.2471 16.9417 197.8375)" class="st1" cx="135.8" cy="88" rx="1" ry="1"/>
			</g>
			<g>
				<path class="st1" d="M143.6,91.2c-0.6-2.2-1.5-4.2-2.7-6.1c-0.3-0.5-1.2,0-0.9,0.5c1.2,1.8,2,3.8,2.6,5.8      C142.8,92.1,143.8,91.8,143.6,91.2z"/>
			</g>
			<g>
				<path class="st1" d="M128,96c-1.8-1.5-4.4-1.7-6.3-0.3c-0.5,0.4,0,1.2,0.5,0.9c1.5-1.1,3.6-1.1,5.1,0.2      C127.8,97.1,128.5,96.4,128,96z"/>
			</g>
			<g>
				<path class="st1" d="M125.9,91.2c2.3,1.4,1.9-2.6,5.5-7.6c1.6-2.2,11.2-2.6,12.1-9.5c0.5-7.2-10.6-4-12.5,0      c-7.1,1-14.3,9.5-10,19.5C122.4,92.4,124.8,91.2,125.9,91.2z"/>
			</g>
		</g>
	</g>
</g>
</svg>