<?xml version="1.0" encoding="UTF-8"?>
<!DOCTYPE svg  PUBLIC '-//W3C//DTD SVG 20010904//EN'  'http://www.w3.org/TR/2001/REC-SVG-20010904/DTD/svg10.dtd'>
<svg width="700pt" height="700pt" version="1.0" viewBox="0 0 700 700" xmlns="http://www.w3.org/2000/svg">
<metadata>Created by potrace 1.14, written by Peter Selinger 2001-2017</metadata>
<g transform="translate(0 700) scale(.1 -.1)">
<path d="m3277 6339c-1e3 -77-1897-689-2337-1594-338-694-378-1489-114-2223 254-706 818-1312 1504-1618 981-437 2101-297 2943 368 129 102 349 323 455 455 827 1044 825 2511-6 3552-586 734-1505 1132-2445 1060zm608-468c672-115 1243-485 1617-1046 145-218 270-502 331-756 52-211 62-307 62-569 0-190-4-270-18-355-84-507-298-943-639-1300-371-389-834-630-1383-722-156-26-553-26-710 0-545 90-1013 334-1383 722-341 357-555 793-639 1300-26 156-26 554 0 710 43 260 110 473 222 700 346 708 1023 1205 1795 1319 164 24 162 24 400 21 171-2 254-8 345-24z"/>
<path d="m4111 4585c-24-7-55-24-69-37-28-25-689-779-739-843-116-146-13-355 173-355 102 0 113 11 519 475 202 231 376 438 386 460 24 51 24 129 0 181-24 53-91 109-146 123-54 14-69 13-124-4z"/>
<path d="m4970 4588c-19-5-47-19-63-30-16-12-339-376-719-809-379-434-692-789-696-789-3 0-121 115-262 255-164 163-269 260-293 270-49 20-133 19-183-4-56-26-110-92-123-152-12-55-6-98 20-149 9-19 181-198 381-396 362-361 363-362 419-374 47-11 64-10 110 4 30 8 66 26 80 38 49 42 1562 1781 1585 1822 66 114-1 273-130 311-56 17-76 17-126 3z"/>
<path d="m1875 3481c-105-49-155-180-110-289 20-47 702-734 760-765 28-15 59-21 101-22 78 0 145 38 188 108 41 66 42 153 4 218-39 65-714 734-760 754-50 20-134 19-183-4z"/>
</g>
</svg>
