<?xml version="1.0" encoding="UTF-8"?>
<!-- Generator: Adobe Illustrator 21.0.2, SVG Export Plug-In . SVG Version: 6.00 Build 0)  -->
<svg version="1.1" id="Слой_1" xmlns="http://www.w3.org/2000/svg" xmlns:xlink="http://www.w3.org/1999/xlink" x="0px" y="0px" viewBox="0 0 459 363" style="enable-background:new 0 0 459 363;" xml:space="preserve">
<style type="text/css">
	.st0{fill:hsl(28deg 79% 55%);}
	.st1{fill:#030047;}
	.st2{fill:#FFFFFF;}
	.st3{fill:#FF3E6C;}
</style>
<g id="_x34_">
	<g id="Bottom_29_">
		<g>
			<path class="st0" d="M233.8,144.7c-8.3,2.6-26,11.9-31,9.8c-3.1-1.4-3.7-4.9-4.9-8.9c-4.8,4.5-11.3,7.1-18,9     c2,12.8,20.4,25.4,20.4,25.4S242.1,142.1,233.8,144.7z"/>
			<path class="st0" d="M200.4,180.9l-0.5-0.3c-0.8-0.5-18.6-12.9-20.7-25.9l-0.1-0.7l0.6-0.2c8-2.2,13.6-5,17.7-8.8l0.9-0.8     l0.3,1.2c0.2,0.5,0.3,1.1,0.5,1.6c0.9,3.2,1.6,5.8,4,6.8c3.2,1.4,12.8-2.7,20.6-5.9c3.7-1.6,7.3-3.1,9.9-3.9     c1-0.3,1.6-0.2,1.9,0.4c0.5,0.8,1.2,2.1-16.8,19.5c-8.7,8.4-17.7,16.6-17.8,16.7L200.4,180.9z M180.8,155.1     c2.2,11,16.6,21.9,19.5,23.9c15.5-14,31.8-29.9,33.7-33.6c-2.5,0.8-6,2.3-9.7,3.8c-8.9,3.7-18,7.5-21.7,5.9     c-3-1.3-3.9-4.5-4.9-7.8c0-0.1-0.1-0.3-0.1-0.4C193.5,150.4,188.1,153,180.8,155.1z"/>
		</g>
		<g id="Swing_part_6_">
			<path class="st1" d="M136,215.4c-0.2,0-0.3,0-0.5-0.2c-0.3-0.3-0.4-0.7-0.1-1.1L240.8,74.7c0.2-0.3,0.7-0.4,1.1-0.1     c0.3,0.3,0.4,0.7,0.1,1.1L136.6,215.1C136.5,215.3,136.2,215.4,136,215.4z"/>
		</g>
		<g id="Leg_2_35_">
			<g>
				<path class="st2" d="M124.4,130.9l-4.5,25l-24.3-9.6l10-41.3c5.2,0.6,7.8,5.4,9.4,10.7c0.1,0.3,0.2,0.6,0.3,1      c0.3,0.9,0.5,1.8,0.7,2.8c0.1,0.3,0.2,0.7,0.2,1c0.4,1.8,0.8,3.5,1.1,5C119.1,132.8,124.4,130.9,124.4,130.9z"/>
				<path class="st1" d="M120.5,156.9l-25.7-10.1l10.3-42.5l0.7,0.1c6.2,0.7,8.7,6.7,10,11.2c0.1,0.3,0.2,0.7,0.3,1      c0.3,1,0.5,1.9,0.7,2.8c0.1,0.3,0.2,0.7,0.2,1c0.2,0.7,0.3,1.5,0.5,2.2c0.2,1,0.4,1.9,0.6,2.8c0.6,2.4,1.5,3.9,2.9,4.6      c1.6,0.8,3.1,0.3,3.1,0.3l1.2-0.5L120.5,156.9z M96.5,145.8l22.8,9l4.1-23c-0.8,0.1-2,0-3.2-0.6c-1.8-0.9-3-2.8-3.6-5.6      c-0.2-0.9-0.4-1.8-0.6-2.8c-0.2-0.7-0.3-1.4-0.5-2.2c-0.1-0.3-0.1-0.7-0.2-1c-0.2-0.9-0.4-1.8-0.7-2.8c-0.1-0.3-0.2-0.6-0.3-0.9      c-1.9-6.1-4.5-9.3-8.1-10L96.5,145.8z"/>
			</g>
			<g>
				<path class="st1" d="M204,168.9c-29.8-9.8-83.5-41.6-83.5-41.6s-8.5,31.9-11,39.9c0,0,32.5,13.5,45.5,21c0,0,60.5-4,59.3-12      S204,168.9,204,168.9z"/>
			</g>
			<g>
				<path class="st1" d="M116.3,120.5l-4.4,2.2c-0.6,0.3-1.1-0.6-0.5-0.9l4.6-2.3C116.1,119.8,116.2,120.1,116.3,120.5z"/>
			</g>
			<g>
				<path class="st1" d="M115.3,116.7l-4.6,2.3c-0.6,0.3-1.1-0.6-0.5-0.9l4.8-2.4C115.2,116,115.2,116.4,115.3,116.7z"/>
			</g>
		</g>
		<g id="Body_2_6_">
			<polygon class="st1" points="226.3,213.9 177.3,217.7 204.6,172.7 241.4,196.9    "/>
		</g>
		<g id="Sit_12_">
			<g>
				<path class="st2" d="M228.1,222.7h-85.2c-1.3,0-2.6-0.7-3.3-1.8l-11.3-18.1c-1.6-2.6,0.2-5.9,3.3-5.9h85.2      c1.3,0,2.6,0.7,3.3,1.8l11.3,18.1C233,219.4,231.1,222.7,228.1,222.7z"/>
				<path class="st1" d="M228.1,223.4h-85.2c-1.6,0-3-0.8-3.9-2.2l-11.3-18.1c-0.9-1.4-0.9-3.2-0.1-4.6c0.8-1.5,2.3-2.4,4-2.4h85.2      c1.6,0,3,0.8,3.9,2.2l11.3,18.1c0.9,1.4,0.9,3.2,0.1,4.6S229.8,223.4,228.1,223.4z M131.6,197.7c-1.1,0-2.1,0.6-2.7,1.6      c-0.6,1-0.5,2.2,0.1,3.1l11.3,18.1c0.6,0.9,1.5,1.5,2.6,1.5h85.2c1.1,0,2.1-0.6,2.7-1.6c0.6-1,0.5-2.2-0.1-3.1l-11.3-18.1      c-0.6-0.9-1.5-1.5-2.6-1.5H131.6z"/>
			</g>
			<g>
				<path class="st1" d="M221.6,215.2h-43.3c-0.4,0-0.8-0.3-0.8-0.8s0.3-0.8,0.8-0.8h43.3c0.4,0,0.8,0.3,0.8,0.8      S222,215.2,221.6,215.2z"/>
			</g>
			<g>
				<path class="st1" d="M218,206h-29.3c-0.4,0-0.8-0.3-0.8-0.8s0.3-0.8,0.8-0.8H218c0.4,0,0.8,0.3,0.8,0.8S218.4,206,218,206z"/>
			</g>
		</g>
		<g id="Leg_42_">
			<g>
				<path class="st2" d="M156.2,262.9l21.1-6.3l6.8,23.2l-40.6,12.4c-2.1-4.8,0.7-9.4,4.4-13.5c0.2-0.2,0.5-0.5,0.7-0.7      c0.7-0.7,1.3-1.4,2-2c0.2-0.2,0.5-0.5,0.7-0.7c1.3-1.2,2.6-2.4,3.7-3.5C160.6,266.5,156.2,262.9,156.2,262.9z"/>
				<path class="st1" d="M143.1,293.1l-0.3-0.6c-2.5-5.7,1.4-10.9,4.5-14.3c0.2-0.3,0.5-0.5,0.7-0.8c0.7-0.7,1.4-1.4,2.1-2      c0.2-0.2,0.5-0.5,0.8-0.7c0.5-0.5,1.1-1,1.6-1.5c0.7-0.7,1.4-1.3,2.1-2c1.7-1.7,2.6-3.3,2.5-4.8c-0.1-1.8-1.3-2.8-1.4-2.9      l-1.1-0.9l23.1-6.9l7.3,24.7L143.1,293.1z M157.6,263.3c0.5,0.7,1,1.7,1,3c0.1,2-0.9,4-3,6c-0.7,0.6-1.4,1.3-2.1,2      c-0.5,0.5-1.1,1-1.6,1.5c-0.3,0.2-0.5,0.5-0.7,0.7c-0.7,0.6-1.3,1.3-2,2c-0.2,0.2-0.5,0.5-0.7,0.7c-4.3,4.7-5.8,8.6-4.5,12.1      l39.2-12l-6.4-21.8L157.6,263.3z"/>
			</g>
			<g>
				<path class="st1" d="M151.4,275.2l4.1,2.6c0.5,0.4,0.1,1.2-0.5,0.9l-4.4-2.8C150.9,275.7,151.1,275.4,151.4,275.2z"/>
			</g>
			<g>
				<path class="st1" d="M148.6,277.9l4.3,2.8c0.5,0.3,0.1,1.2-0.5,0.9l-4.5-2.9C148.1,278.4,148.4,278.2,148.6,277.9z"/>
			</g>
			<g>
				<path class="st1" d="M205.3,177c-4.8-1.9-10-2.9-15-4.3c-30.3,1.3-57.5,5.7-56.3,32.9c1.5,32.3,14.9,66.1,14.9,66.1l35.6-9.3      c0,0-9.4-40.9-11.6-50.9l25.6-17.1L205.3,177z"/>
			</g>
			<g>
				<path class="st2" d="M172.1,211.2c-0.3,0-0.6-0.2-0.7-0.6l-1.5-6.2c-0.1-0.4,0.1-0.8,0.5-0.9c0.4-0.1,0.8,0.1,0.9,0.5l1.5,6.2      c0.1,0.4-0.1,0.8-0.5,0.9C172.2,211.2,172.2,211.2,172.1,211.2z"/>
			</g>
			<g>
				<path class="st2" d="M199.4,182c-0.1,0-0.2,0-0.2,0c-21.2-6.8-40.9-4.5-52.2,0c-0.4,0.2-0.8,0-1-0.4s0-0.8,0.4-1      c11.5-4.6,31.6-7,53.2,0c0.4,0.1,0.6,0.5,0.5,0.9C200,181.8,199.7,182,199.4,182z"/>
			</g>
		</g>
		<g id="Palm_15_">
			<g>
				<path class="st2" d="M195.3,127.8c-3.8,0-1.1,7.4-1.1,7.4s-0.3,0.1-0.8,0.3c-1.1-2.4-3.2-5.5-6.1-5.6c-2,0-2.3,2.8-2.3,2.8      s-1.9,0.5-2.5,1.1c-1.5,1.5-1.7,3.9-1.7,3.9c-2.8,1-3.5,5.9-0.9,16.1c0.2,0.9,0.6,1.8,0.9,2.8c6.4-2,12.4-4.7,17.9-8.4      c-0.3-1-0.6-2-0.9-3.1C202.7,137.8,198.1,127.8,195.3,127.8z"/>
				<path class="st1" d="M180.4,157.6l-0.3-0.6c-0.4-1-0.7-1.9-1-2.9c-2.5-9.7-2.2-15.2,0.9-16.8c0.1-0.8,0.6-2.6,1.8-3.9      c0.5-0.5,1.7-0.9,2.4-1.1c0.3-1.3,1.2-3,3-3c2,0,3.9,1.3,5.5,3.7c-0.3-1.6-0.5-3.7,0.4-4.9c0.3-0.5,1-1.1,2.2-1.1      c1.2,0,2.4,1.1,3.5,3.1c2.2,4,2.9,10.2-0.2,15.2c0.2,0.5,0.3,1.1,0.5,1.6c0.1,0.4,0.2,0.8,0.3,1.2l0.2,0.5l-0.5,0.3      c-5.5,3.6-11.6,6.5-18.1,8.5L180.4,157.6z M187.2,130.8c-1.3,0-1.6,2.1-1.6,2.2l-0.1,0.5l-0.5,0.1c-0.8,0.2-1.9,0.6-2.1,0.9      c-1.3,1.3-1.5,3.4-1.5,3.4l0,0.5l-0.5,0.2c-2.6,0.9-2.7,6.3-0.4,15.2c0.2,0.6,0.4,1.3,0.6,2c6-1.9,11.6-4.5,16.6-7.8      c-0.1-0.2-0.1-0.4-0.2-0.6c-0.2-0.6-0.4-1.3-0.6-1.9l-0.1-0.3l0.2-0.3c3-4.5,2.2-10.4,0.3-13.9c-0.9-1.7-1.8-2.3-2.2-2.3      c-0.6,0-0.8,0.2-0.9,0.4c-0.8,1.1-0.1,4.3,0.5,6l0.3,0.7l-0.7,0.3c0,0-0.3,0.1-0.7,0.3l-0.7,0.3l-0.3-0.7      C191.6,133.6,189.8,130.8,187.2,130.8C187.2,130.8,187.2,130.8,187.2,130.8z"/>
			</g>
			<g>
				<path class="st1" d="M184.1,138.9c-0.5-0.4-1.2,0.3-0.7,0.7c1.6,1.5,3.2,3.3,3.9,5.4c0.3,0.9,0.9,2.6-0.9,2.9      c-0.8,0.1-1.6-0.8-2.1-1.4c-0.6-0.8-1.1-1.6-1.8-2.2c-0.5-0.4-1.2,0.3-0.7,0.7c1.2,1.2,1.9,3,3.6,3.7c1.2,0.5,2.5,0.2,3-1      C189.8,144.7,186,140.6,184.1,138.9z"/>
			</g>
			<g>
				<path class="st1" d="M192.6,135.6c-0.4-0.5-1.1,0.2-0.7,0.7c1.7,1.9,1.3,4.7-0.8,6.1c-0.4-2.6-2.8-5.4-4.2-7      c-0.4-0.5-1.1,0.2-0.7,0.7c1.6,1.8,6,6.8,2.8,9c-0.5,0.4,0,1.2,0.5,0.9c1.1-0.7,1.5-1.6,1.6-2.6c0.1,0.1,0.3,0.1,0.4,0      C194.2,141.6,194.7,138.1,192.6,135.6z"/>
			</g>
		</g>
		<g>
			<path class="st1" d="M179.3,158.1c-0.2,0-0.3,0-0.5-0.2c-0.3-0.3-0.4-0.7-0.1-1.1l6.5-8.6c0.2-0.3,0.7-0.4,1.1-0.1     c0.3,0.3,0.4,0.7,0.1,1.1l-6.5,8.6C179.8,158,179.5,158.1,179.3,158.1z"/>
		</g>
	</g>
	<g id="Background_27_">
		<g>
			<circle class="st2" cx="331.4" cy="105.9" r="11"/>
			<path class="st1" d="M331.4,117.7c-6.5,0-11.7-5.3-11.7-11.7c0-6.5,5.3-11.7,11.7-11.7s11.7,5.3,11.7,11.7     C343.1,112.4,337.9,117.7,331.4,117.7z M331.4,95.7c-5.6,0-10.2,4.6-10.2,10.2c0,5.6,4.6,10.2,10.2,10.2s10.2-4.6,10.2-10.2     C341.6,100.3,337,95.7,331.4,95.7z"/>
		</g>
		<g>
			<path class="st2" d="M340.9,174.4L321,197.7c7.5,5.5,17.3,5.2,22.5-0.9C348.3,191.2,347.4,181,340.9,174.4z"/>
			<path class="st1" d="M332.4,202.4c-4,0-8.2-1.3-11.9-4.1l-0.7-0.5l21-24.5l0.6,0.6c6.6,6.6,7.8,17.3,2.6,23.4     C341.1,200.7,336.9,202.4,332.4,202.4z M322.1,197.6c7.2,4.8,16,4.3,20.8-1.3c4.5-5.3,3.6-14.6-2-20.8L322.1,197.6z"/>
		</g>
		<g>
			<rect x="330.7" y="91.9" class="st2" width="48" height="9.2"/>
			<path class="st1" d="M379.4,101.8h-49.5V91.2h49.5V101.8z M331.4,100.3h46.5v-7.7h-46.5V100.3z"/>
		</g>
		<g>
			<polygon class="st1" points="348.9,180.6 360.5,175.6 360.5,189.3    "/>
		</g>
		<g>
			<line class="st2" x1="207.6" y1="271.9" x2="217.9" y2="282.1"/>

				<rect x="212" y="269.8" transform="matrix(0.7071 -0.7071 0.7071 0.7071 -133.559 231.5636)" class="st1" width="1.5" height="14.5"/>
		</g>
		<g>
			<line class="st2" x1="217.9" y1="271.9" x2="207.6" y2="282.1"/>

				<rect x="205.5" y="276.3" transform="matrix(0.7071 -0.7071 0.7071 0.7071 -133.56 231.5719)" class="st1" width="14.5" height="1.5"/>
		</g>
		<g>
			<path class="st1" d="M217.9,260.7c-0.1,0-0.3,0-0.4-0.1c-0.3-0.2-0.4-0.7-0.2-1l5.4-8.3c0.2-0.3,0.7-0.4,1-0.2     c0.3,0.2,0.4,0.7,0.2,1l-5.4,8.3C218.4,260.6,218.1,260.7,217.9,260.7z"/>
		</g>
		<g>
			<path class="st1" d="M223.3,264.9c-0.2,0-0.4-0.1-0.6-0.3c-0.3-0.3-0.2-0.8,0.1-1.1l5.5-4.3c0.3-0.3,0.8-0.2,1.1,0.1     c0.3,0.3,0.2,0.8-0.1,1.1l-5.5,4.3C223.6,264.9,223.4,264.9,223.3,264.9z"/>
		</g>
		<g>
			<path class="st1" d="M146.7,133.5c-0.2,0-0.5-0.1-0.6-0.3l-3.9-5.4c-0.2-0.3-0.2-0.8,0.2-1c0.3-0.2,0.8-0.2,1,0.2l3.9,5.4     c0.2,0.3,0.2,0.8-0.2,1C147,133.5,146.9,133.5,146.7,133.5z"/>
		</g>
		<g>
			<path class="st1" d="M146.7,113.9c-0.3,0-0.6-0.2-0.7-0.5c-0.1-0.4,0.1-0.8,0.5-1l9.5-3.4c0.4-0.1,0.8,0.1,1,0.5     c0.1,0.4-0.1,0.8-0.5,1l-9.5,3.4C146.9,113.9,146.8,113.9,146.7,113.9z"/>
		</g>
		<g>
			<path class="st0" d="M127.8,255.8c0,12.6-10.2,22.8-22.8,22.8s-22.8-8.5-22.8-22.8c0-12.6,10.2-22.8,22.8-22.8     S127.8,243.2,127.8,255.8z"/>
		</g>
	</g>
	<g id="Top_28_">
		<g id="Hand_119_">
			<g>
				<path class="st2" d="M338.1,139.2c5.6-0.9,8.9,1,10.3,4.9s-9.3,10.4-9.3,10.4l-7.8-7.7L338.1,139.2z"/>
				<path class="st1" d="M339,155.4l-8.7-8.7l7.4-8.2l0.3,0c7.2-1.1,10,2.3,11.1,5.4c1.5,4.3-8.4,10.6-9.6,11.3L339,155.4z       M332.4,146.7l6.8,6.8c3.9-2.5,9.3-6.9,8.4-9.2c-1.3-3.7-4.3-5.1-9.2-4.4L332.4,146.7z"/>
			</g>
			<g>
				<path class="st0" d="M333.1,163.7c-1.8,8.9-14.8,30.3-32.6,31.1c-19.1,0.8-31.6-7.3-40-15.8c-6.4,11.5-22.4,28.3-22.4,28.3      c-8.4-12.1-41.7-42.3-41.7-42.3s17.8,1,26-11.8c7-10.8,22.2-12.7,33.7-6.1c1,0.5,1.8,1.1,2.6,1.7c16.8,9.3,31.8,20.8,38.5,17      c7-3.9,18.6-11.9,24.6-17.7c0,0,0.1-0.1,0.1-0.1c0.1,0.7,0.3,1.5,0.8,2.3c2.7,4.4,6,8.6,9.6,12.4      C332.5,163.1,332.8,163.4,333.1,163.7z"/>
				<path class="st0" d="M238,208.6l-0.5-0.8c-8.3-11.9-41.3-41.8-41.6-42.1l-1.6-1.4l2.1,0.1c0.2,0,17.4,0.8,25.3-11.4      c6.9-10.7,22.2-13.5,34.7-6.4c0.9,0.5,1.8,1.1,2.6,1.7c4,2.2,7.8,4.5,11.5,6.7c11.5,6.9,21.5,12.9,26.2,10.2      c7.2-4.1,18.6-12,24.4-17.6c0.1-0.1,0.1-0.1,0.2-0.2l1.1-0.8l0.1,1.4c0,0.7,0.3,1.3,0.7,2c2.7,4.3,5.9,8.5,9.5,12.3      c0.3,0.3,0.6,0.6,0.9,0.9l0.3,0.3l-0.1,0.4c-1.6,8.4-14.4,30.9-33.3,31.7c-15.7,0.7-28.7-4.3-39.9-15.4      c-6.7,11.4-21.9,27.5-22,27.6L238,208.6z M198.3,165.9c6.4,5.9,31.7,29.2,39.8,40.3c3-3.2,16.1-17.5,21.7-27.5l0.5-0.9l0.7,0.7      c11,11.2,24,16.3,39.4,15.6c17-0.7,29.8-21.1,31.8-30.1c-0.2-0.2-0.4-0.4-0.6-0.7c-3.7-3.9-6.9-8.1-9.7-12.5      c-0.3-0.4-0.5-0.8-0.6-1.3c-6.1,5.6-16.9,13.1-23.8,17c-5.5,3.1-15.3-2.8-27.7-10.2c-3.7-2.2-7.6-4.5-11.5-6.8l-0.1-0.1      c-0.8-0.6-1.6-1.2-2.5-1.7c-11.9-6.7-26.3-4.2-32.7,5.9C216.2,164.3,203.3,165.7,198.3,165.9z"/>
			</g>
			<g>
				<path class="st1" d="M338.8,144.8c-0.6-0.3-1.1,0.6-0.5,0.9c2,1.1,2.4,3.6,0.6,5.2c-0.5,0.4,0.2,1.1,0.7,0.7      C341.8,149.6,341.4,146.2,338.8,144.8z"/>
			</g>
			<g>
				<path class="st3" d="M343.2,143.3c-0.4-0.5-1.1,0.2-0.7,0.7c1.7,2,1.7,4.7,0.1,6.8c-0.4,0.5,0.3,1.2,0.7,0.7      C345.3,149,345.3,145.7,343.2,143.3z"/>
			</g>
			<g>
				<path class="st1" d="M257.6,178.1c-0.3,0-0.5-0.1-0.7-0.4l-2.1-3.8c-0.2-0.4-0.1-0.8,0.3-1c0.4-0.2,0.8-0.1,1,0.3l2.1,3.8      c0.2,0.4,0.1,0.8-0.3,1C257.8,178,257.7,178.1,257.6,178.1z"/>
			</g>
			<g>
				<path class="st2" d="M334.3,159.4c-0.6,0.6-1.3,1.8-2,3.4c-3.6-3.8-10.3-13.9-10.4-14.7c2.1-2.1,4.2-4.1,6.3-5.9      c5.6-4.9,13.1-9.2,15-7.2c4.5,5-10,5.1-9,11.6s10,3,11,7.5S338.3,155.2,334.3,159.4z"/>
				<path class="st1" d="M332.5,164.1l-0.8-0.8c-3.3-3.5-10.5-14-10.6-15.2l0-0.3l0.2-0.2c1.9-1.8,4.1-3.9,6.4-5.9      c5.1-4.4,13.5-9.9,16-7.1c0.9,1,1.2,1.8,1,2.7c-0.3,1.6-2.2,2.6-4.5,3.7c-3.3,1.7-5.7,3.1-5.3,5.6c0.5,3,3,3.5,5.6,4      c2.4,0.5,4.8,0.9,5.4,3.4c0.2,0.9,0.1,1.7-0.3,2.3c-0.8,1.1-2.4,1.2-4.3,1.4c-2.3,0.2-4.9,0.4-6.6,2.3l0,0      c-0.5,0.5-1.1,1.6-1.9,3.2L332.5,164.1z M322.8,148.3c1,1.8,5.9,9.3,9.3,13.2c0.6-1.3,1.2-2.1,1.6-2.6c2.1-2.2,5.1-2.5,7.6-2.7      c1.4-0.1,2.8-0.3,3.2-0.8c0.2-0.2,0.2-0.6,0.1-1.1c-0.3-1.5-1.8-1.8-4.2-2.3c-2.8-0.5-6.2-1.2-6.8-5.3c-0.6-3.8,3.1-5.6,6.1-7.1      c1.7-0.9,3.5-1.8,3.7-2.7c0.1-0.4-0.2-0.9-0.7-1.4c-1.1-1.2-7.4,1.7-13.9,7.2C326.6,144.6,324.6,146.6,322.8,148.3z"/>
			</g>
		</g>
		<g id="Window_35_">
			<g>

					<rect x="343.8" y="121.5" transform="matrix(0.7123 -0.7019 0.7019 0.7123 6.2192 299.6302)" class="st2" width="49.6" height="41.5"/>
				<path class="st1" d="M365.5,175.5l-30.2-30.6l36.4-35.9l30.2,30.6L365.5,175.5z M337.4,144.9l28.1,28.5l34.3-33.8l-28.1-28.5      L337.4,144.9z"/>
			</g>
			<g>

					<ellipse transform="matrix(0.7123 -0.7019 0.7019 0.7123 -3.3984 289.4381)" class="st0" cx="351.3" cy="148.9" rx="1.8" ry="1.8"/>
			</g>
			<g>

					<ellipse transform="matrix(0.7123 -0.7019 0.7019 0.7123 0.7871 291.2261)" class="st0" cx="355.6" cy="144.7" rx="1.8" ry="1.8"/>
			</g>
			<g>
				<path class="st1" d="M382.6,136.1l-8.4,8.2c-1,1-2.6,1-3.6,0h0c-1-1-1-2.6,0-3.6l8.4-8.2c1-1,2.6-1,3.6,0l0,0      C383.6,133.5,383.6,135.1,382.6,136.1z"/>
			</g>
			<g>
				<path class="st1" d="M373.1,133.5l-4.9,4.8c-1,1-2.6,1-3.6,0l0,0c-1-1-1-2.6,0-3.6l4.9-4.8c1-1,2.6-1,3.6,0l0,0      C374.1,130.9,374.1,132.5,373.1,133.5z"/>
			</g>
			<g>
				<path class="st1" d="M388.6,142.2l-8.4,8.2c-1,1-2.6,1-3.6,0l0,0c-1-1-1-2.6,0-3.6l8.4-8.2c1-1,2.6-1,3.6,0l0,0      C389.6,139.5,389.6,141.2,388.6,142.2z"/>
			</g>
			<g>
				<path class="st1" d="M351.6,125.7c-0.3,0-0.6-0.2-0.7-0.5l-2.9-7.5c-0.1-0.4,0-0.8,0.4-1c0.4-0.1,0.8,0,1,0.4l2.9,7.5      c0.1,0.4,0,0.8-0.4,1C351.7,125.7,351.7,125.7,351.6,125.7z"/>
			</g>
			<g>
				<path class="st1" d="M347.8,128.5c-0.2,0-0.4-0.1-0.5-0.2l-3.4-3.5c-0.3-0.3-0.3-0.8,0-1.1c0.3-0.3,0.8-0.3,1.1,0l3.4,3.5      c0.3,0.3,0.3,0.8,0,1.1C348.2,128.5,348,128.5,347.8,128.5z"/>
			</g>
		</g>
		<g id="Swing_6_">
			<g>
				<path class="st1" d="M336.5,75.9H220.6c-0.4,0-0.8-0.3-0.8-0.8s0.3-0.8,0.8-0.8h115.9c0.4,0,0.8,0.3,0.8,0.8      S336.9,75.9,336.5,75.9z"/>
			</g>
			<g>
				<path class="st1" d="M225.3,208.1c-0.2,0-0.3,0-0.5-0.2c-0.3-0.3-0.4-0.7-0.1-1.1l99.9-132.2c0.2-0.3,0.7-0.4,1.1-0.1      c0.3,0.3,0.4,0.7,0.1,1.1l-99.9,132.2C225.7,208,225.5,208.1,225.3,208.1z"/>
			</g>
		</g>
		<g id="Head_131_">
			<g>
				<path class="st1" d="M249.4,118.7c-2.9,1.1-6.4,2.7-9.6,1.7c-2.9-0.9-4.2-3.6-6.2-5.8c-3.1-3.5-7.4-5.6-12-6      c-10.1-0.8-17.1,7.7-13,17.3c3.7,8.5,12.6,14,21.6,15c8.7,1,20.5-2.6,22.2-12.4c0.1-0.8,0-1.6-0.2-2.4      C256,123.8,253.9,117,249.4,118.7z"/>
			</g>
			<g>
				<path class="st2" d="M258,114.5c-7-1.4-14,3.8-15.6,11.7c0,0,0,0.1,0,0.1c-0.7-0.1-1.4-0.1-2.1-0.1c-4.3,0.4-6.1,4.1-4.4,7.1      c1.5,2.6,4.9,4.7,8.5,3.8c1.8,2.8,4.6,5,7.9,5.9c9.8,2.8,14-3.8,15.6-11.7C269.4,123.4,265,115.9,258,114.5z"/>
				<path class="st1" d="M256.6,144.3c-1.4,0-2.9-0.2-4.5-0.7c-3.2-0.9-6-3-8-5.8c-3.9,0.7-7.3-1.7-8.8-4.3c-0.9-1.6-1-3.5-0.2-5.1      c0.9-1.8,2.8-2.9,5.2-3.1c0.5,0,1,0,1.6,0c0.9-3.7,3-7,5.9-9.2c3.1-2.3,6.8-3.2,10.4-2.5l0,0c7.4,1.5,12.1,9.4,10.5,17.6      c-1.1,5.7-3.3,9.5-6.6,11.5C260.4,143.8,258.6,144.3,256.6,144.3z M244.8,136.1l0.3,0.4c1.8,2.7,4.4,4.7,7.4,5.6      c3.5,1,6.4,0.8,8.8-0.6c2.9-1.7,4.8-5.3,5.9-10.5c1.5-7.4-2.7-14.6-9.3-15.9c-3.2-0.6-6.5,0.2-9.3,2.2c-2.8,2.1-4.7,5.2-5.5,8.9      L243,127l-0.7,0c-0.7-0.1-1.3-0.1-1.9-0.1c-1.8,0.2-3.3,1-4,2.3c-0.6,1.1-0.5,2.4,0.1,3.6c1.3,2.2,4.3,4.3,7.7,3.4L244.8,136.1z      "/>
			</g>
			<g>
				<path class="st1" d="M266.1,120.4c7.8-2.3,0.6-10.3-8.2-5.9c-7-1.4-14,3.8-15.6,11.7c0,0.1,0,0.3-0.1,0.4c1.1,0,5.2,0.4,9.1-2.6      C256.7,123.6,264,120,266.1,120.4z"/>
			</g>
			<g>
				<ellipse transform="matrix(0.559 -0.8292 0.8292 0.559 6.4979 270.7138)" class="st1" cx="257.7" cy="129.2" rx="1" ry="1"/>
			</g>
			<g>
				<path class="st1" d="M264,134.8c0.1-2.2,0-4.5-0.5-6.6c-0.1-0.6-1.1-0.4-1,0.2c0.5,2.1,0.7,4.2,0.5,6.4      C263,135.4,264,135.5,264,134.8z"/>
			</g>
			<g>
				<path class="st1" d="M244.7,131.8c-1.2-2.1-3.6-3.1-5.8-2.4c-0.6,0.2-0.4,1.2,0.2,1c1.8-0.5,3.8,0.2,4.8,1.9      C244.1,132.8,245,132.4,244.7,131.8z"/>
			</g>
		</g>
		<g>
			<path class="st1" d="M203,165.8c-0.6,0-1.3,0-1.9-0.1c-0.4,0-0.7-0.4-0.7-0.8c0-0.4,0.4-0.7,0.8-0.7c10.7,1.2,19-9.2,23.4-14.9     c0.3-0.3,0.7-0.4,1.1-0.1c0.3,0.3,0.4,0.7,0.1,1.1C221.5,155.8,213.6,165.8,203,165.8z"/>
		</g>
	</g>
</g>
</svg>